<svg xmlns="http://www.w3.org/2000/svg" viewBox="0 0 140 140" width="140" height="140" preserveAspectRatio="xMidYMid meet" style="width: 100%; height: 100%; transform: translate3d(0px, 0px, 0px);"><defs><clipPath id="__lottie_element_5"><rect width="140" height="140" x="0" y="0"></rect></clipPath><image xlink:href="calendar.svg"></image><clipPath id="__lottie_element_7"><path d="M0,0 L1400,0 L1400,1400 L0,1400z"></path></clipPath><mask id="__lottie_element_10" mask-type="alpha"><g transform="matrix(1,0,0,2.680569887161255,247.9000244140625,489.0618591308594)" opacity="1" style="display: block;"><g opacity="1" transform="matrix(1,0,0,1,373.9169921875,58.861000061035156)"><path fill="rgb(0,102,245)" fill-opacity="1" d=" M373.6669921875,58.611000061035156 C373.6669921875,58.611000061035156 -373.6669921875,58.611000061035156 -373.6669921875,58.611000061035156 C-373.6669921875,58.611000061035156 -373.6669921875,-58.611000061035156 -373.6669921875,-58.611000061035156 C-373.6669921875,-58.611000061035156 373.6669921875,-58.611000061035156 373.6669921875,-58.611000061035156 C373.6669921875,-58.611000061035156 373.6669921875,58.611000061035156 373.6669921875,58.611000061035156z"></path></g></g></mask><clipPath id="__lottie_element_14"><path d="M0,0 L1400,0 L1400,1400 L0,1400z"></path></clipPath><clipPath id="__lottie_element_24"><path d="M0,0 L1080,0 L1080,1080 L0,1080z"></path></clipPath><clipPath id="__lottie_element_61"><path d="M0,0 L1400,0 L1400,1400 L0,1400z"></path></clipPath></defs><g clip-path="url(#__lottie_element_5)"><g clip-path="url(#__lottie_element_7)" transform="matrix(0.10000000149011612,0,0,0.10000000149011612,0,0)" opacity="1" style="display: block;"><g transform="matrix(1,0,0,2.680569887161255,247.9000244140625,489.0618591308594)" opacity="1" style="display: block;"><g opacity="1" transform="matrix(1,0,0,1,373.9169921875,58.861000061035156)"><path fill="rgb(0,102,245)" fill-opacity="1" d=" M373.6669921875,58.611000061035156 C373.6669921875,58.611000061035156 -373.6669921875,58.611000061035156 -373.6669921875,58.611000061035156 C-373.6669921875,58.611000061035156 -373.6669921875,-58.611000061035156 -373.6669921875,-58.611000061035156 C-373.6669921875,-58.611000061035156 373.6669921875,-58.611000061035156 373.6669921875,-58.611000061035156 C373.6669921875,-58.611000061035156 373.6669921875,58.611000061035156 373.6669921875,58.611000061035156z"></path></g></g><g class="png" transform="matrix(10,0,0,10,248.1500244140625,601.4539794921875)" opacity="1" style="display: block;"><image width="75px" height="58px" preserveAspectRatio="xMidYMid slice" xlink:href="calendar.png"></image></g><g transform="matrix(1,0,0,1,404.8819885253906,426.125)" opacity="1" style="display: block;"><g opacity="1" transform="matrix(1,0,0,1,0,0)"><path stroke-linecap="butt" stroke-linejoin="miter" fill-opacity="0" stroke-miterlimit="10" stroke="rgb(0,55,131)" stroke-opacity="1" stroke-width="50" d=" M25.000999450683594,63.608001708984375 C25.000999450683594,63.608001708984375 25.000999450683594,127.21600341796875 25.000999450683594,127.21600341796875"></path></g><g opacity="1" transform="matrix(1,0,0,1,0,0)"><path stroke-linecap="butt" stroke-linejoin="miter" fill-opacity="0" stroke-miterlimit="10" stroke="rgb(0,55,131)" stroke-opacity="1" stroke-width="50" d=" M408.8739929199219,63.608001708984375 C408.8739929199219,63.608001708984375 408.8739929199219,127.21600341796875 408.8739929199219,127.21600341796875"></path></g><g opacity="1" transform="matrix(1,0,0,1,0,0)"><path stroke-linecap="butt" stroke-linejoin="miter" fill-opacity="0" stroke-miterlimit="10" stroke="rgb(0,102,245)" stroke-opacity="1" stroke-width="50" d=" M25.000999450683594,0 C25.000999450683594,0 25.000999450683594,63.608001708984375 25.000999450683594,63.608001708984375"></path></g><g opacity="1" transform="matrix(1,0,0,1,0,0)"><path stroke-linecap="butt" stroke-linejoin="miter" fill-opacity="0" stroke-miterlimit="10" stroke="rgb(0,102,245)" stroke-opacity="1" stroke-width="50" d=" M408.8739929199219,0 C408.8739929199219,0 408.8739929199219,63.608001708984375 408.8739929199219,63.608001708984375"></path></g></g><g clip-path="url(#__lottie_element_61)" transform="matrix(1,0,0,1,0,0)" opacity="1" style="display: block;"><g transform="matrix(0.9668483734130859,0.2553512752056122,-0.2553512752056122,0.9668483734130859,628.2811279296875,69.15609741210938)" opacity="1" style="display: block;"><g opacity="1" transform="matrix(1,0,0,1,358.83099365234375,345.7130126953125)"><path stroke-linecap="butt" stroke-linejoin="miter" fill-opacity="0" stroke-miterlimit="10" stroke="rgb(0,102,245)" stroke-opacity="1" stroke-width="25" d=" M122.84700012207031,-244.09800720214844 C161.06700134277344,-223.7729949951172 193.20899963378906,-194.41099548339844 216.90199279785156,-159.26800537109375 C216.90199279785156,-159.26800537109375 210.91099548339844,-167.78599548339844 210.91099548339844,-167.78599548339844 C296.33099365234375,-51.30400085449219 271.1510009765625,112.37200164794922 154.66799926757812,197.79200744628906 C38.18600082397461,283.2130126953125 -125.48899841308594,258.0320129394531 -210.91000366210938,141.5500030517578 C-296.33099365234375,25.066999435424805 -271.1499938964844,-138.60800170898438 -154.66700744628906,-224.0279998779297 C-93.56400299072266,-268.8370056152344 -19.475000381469727,-283.2120056152344 49.49300003051758,-269.93798828125"></path></g></g><g transform="matrix(0.9668483734130859,0.2553512752056122,-0.2553512752056122,0.9668483734130859,897.2227172851562,45.17463302612305)" opacity="1" style="display: block;"><g opacity="1" transform="matrix(1,0,0,1,108.45700073242188,162.1540069580078)"><path stroke-linecap="butt" stroke-linejoin="miter" fill-opacity="0" stroke-miterlimit="10" stroke="rgb(0,102,245)" stroke-opacity="1" stroke-width="25" d=" M-57.863765716552734,76.40117645263672 C-57.863765716552734,76.40117645263672 45.957000732421875,5.515999794006348 45.957000732421875,5.515999794006348 C45.957000732421875,5.515999794006348 -58.72319793701172,-78.3474349975586 -58.72319793701172,-78.3474349975586"></path></g></g></g><g clip-path="url(#__lottie_element_24)" transform="matrix(0.2980000078678131,0,0,0.2980000078678131,333.09503173828125,732.9930419921875)" opacity="1" style="display: block;"><g transform="matrix(1,0,0,1,161.49996948242188,73.50003051757812)" opacity="1" style="display: none;"><g opacity="1" transform="matrix(1,0,0,1,378.0769958496094,466.2149963378906)"><path fill="rgb(0,102,245)" fill-opacity="1" d=" M102.80500030517578,-465.9639892578125 C102.80500030517578,-465.9639892578125 -102.78800201416016,-465.9639892578125 -102.78800201416016,-465.9639892578125 C-254.44200134277344,-465.9639892578125 -377.8269958496094,-342.5790100097656 -377.8269958496094,-190.94200134277344 C-377.8269958496094,-116.7969970703125 -348.1940002441406,-49.53200149536133 -300.31298828125,-0.01600000075995922 C-348.1940002441406,49.5 -377.8269958496094,116.76399993896484 -377.8269958496094,190.90899658203125 C-377.8269958496094,342.5790100097656 -254.44200134277344,465.9639892578125 -102.78800201416016,465.9639892578125 C-102.78800201416016,465.9639892578125 102.80500030517578,465.9639892578125 102.80500030517578,465.9639892578125 C254.45799255371094,465.9639892578125 377.8269958496094,342.5790100097656 377.8269958496094,190.90899658203125 C377.8269958496094,116.76399993896484 348.1990051269531,49.5 300.3219909667969,-0.01600000075995922 C348.1990051269531,-49.53200149536133 377.8269958496094,-116.7969970703125 377.8269958496094,-190.94200134277344 C377.8269958496094,-342.5790100097656 254.45799255371094,-465.9639892578125 102.80500030517578,-465.9639892578125z M-102.78800201416016,-297.77099609375 C-102.78800201416016,-297.77099609375 102.80500030517578,-297.77099609375 102.80500030517578,-297.77099609375 C161.7050018310547,-297.77099609375 209.63400268554688,-249.8419952392578 209.63400268554688,-190.94200134277344 C209.63400268554688,-132.04100036621094 161.7050018310547,-84.11299896240234 102.80500030517578,-84.11299896240234 C102.80500030517578,-84.11299896240234 -102.78800201416016,-84.11299896240234 -102.78800201416016,-84.11299896240234 C-161.7050018310547,-84.11299896240234 -209.63400268554688,-132.04100036621094 -209.63400268554688,-190.94200134277344 C-209.63400268554688,-249.8419952392578 -161.7050018310547,-297.77099609375 -102.78800201416016,-297.77099609375z M102.80500030517578,297.77099609375 C102.80500030517578,297.77099609375 -102.78800201416016,297.77099609375 -102.78800201416016,297.77099609375 C-161.7050018310547,297.77099609375 -209.63400268554688,249.8419952392578 -209.63400268554688,190.90899658203125 C-209.63400268554688,132.00799560546875 -161.7050018310547,84.08100128173828 -102.78800201416016,84.08100128173828 C-102.78800201416016,84.08100128173828 102.80500030517578,84.08100128173828 102.80500030517578,84.08100128173828 C161.7050018310547,84.08100128173828 209.63400268554688,132.00799560546875 209.63400268554688,190.90899658203125 C209.63400268554688,249.8419952392578 161.7050018310547,297.77099609375 102.80500030517578,297.77099609375z"></path></g></g><g transform="matrix(1,0,0,1,140.5,56.000030517578125)" opacity="1" style="display: block;"><g opacity="1" transform="matrix(1,0,0,1,399.093994140625,483.5710144042969)"><path fill="rgb(0,102,245)" fill-opacity="1" d=" M120.46800231933594,-483.3210144042969 C120.46800231933594,-483.3210144042969 -120.46900177001953,-483.3210144042969 -120.46900177001953,-483.3210144042969 C-273.9620056152344,-483.3210144042969 -398.843994140625,-358.4389953613281 -398.843994140625,-204.96200561523438 C-398.843994140625,-51.486000061035156 -273.9620056152344,73.39700317382812 -120.46900177001953,73.39700317382812 C-120.46900177001953,73.39700317382812 34.48899841308594,73.39700317382812 34.48899841308594,73.39700317382812 C34.48899841308594,73.39700317382812 -210.20799255371094,376.39300537109375 -210.20799255371094,376.39300537109375 C-210.20799255371094,376.39300537109375 -77.77799987792969,483.3210144042969 -77.77799987792969,483.3210144042969 C-77.77799987792969,483.3210144042969 334.9079895019531,-27.690000534057617 334.9079895019531,-27.690000534057617 C335.1419982910156,-27.972999572753906 335.364990234375,-28.261999130249023 335.6000061035156,-28.54599952697754 C335.6000061035156,-28.54599952697754 341.9880065917969,-36.45800018310547 341.9880065917969,-36.45800018310547 C341.9880065917969,-36.45800018310547 341.69500732421875,-36.694000244140625 341.69500732421875,-36.694000244140625 C377.385986328125,-83.49400329589844 398.843994140625,-141.70399475097656 398.843994140625,-204.96200561523438 C398.843994140625,-358.4389953613281 273.96099853515625,-483.3210144042969 120.46800231933594,-483.3210144042969z M-228.61099243164062,-204.96200561523438 C-228.61099243164062,-264.5769958496094 -180.1009979248047,-313.0870056152344 -120.46900177001953,-313.0870056152344 C-120.46900177001953,-313.0870056152344 120.46800231933594,-313.0870056152344 120.46800231933594,-313.0870056152344 C180.0989990234375,-313.0870056152344 228.60899353027344,-264.5769958496094 228.60899353027344,-204.96200561523438 C228.60899353027344,-145.3470001220703 180.0989990234375,-96.83699798583984 120.46800231933594,-96.83699798583984 C120.46800231933594,-96.83699798583984 -120.46900177001953,-96.83699798583984 -120.46900177001953,-96.83699798583984 C-180.1009979248047,-96.83699798583984 -228.61099243164062,-145.3470001220703 -228.61099243164062,-204.96200561523438z"></path></g></g><g transform="matrix(1,0,0,1,161.49996948242188,73.50003051757812)" opacity="1" style="display: none;"><g opacity="1" transform="matrix(1,0,0,1,378.0769958496094,466.2149963378906)"><path fill="rgb(0,102,245)" fill-opacity="1" d=" M102.80500030517578,-465.9639892578125 C102.80500030517578,-465.9639892578125 -102.78800201416016,-465.9639892578125 -102.78800201416016,-465.9639892578125 C-254.44200134277344,-465.9639892578125 -377.8269958496094,-342.5790100097656 -377.8269958496094,-190.94200134277344 C-377.8269958496094,-116.7969970703125 -348.1940002441406,-49.53200149536133 -300.31298828125,-0.01600000075995922 C-348.1940002441406,49.5 -377.8269958496094,116.76399993896484 -377.8269958496094,190.90899658203125 C-377.8269958496094,342.5790100097656 -254.44200134277344,465.9639892578125 -102.78800201416016,465.9639892578125 C-102.78800201416016,465.9639892578125 102.80500030517578,465.9639892578125 102.80500030517578,465.9639892578125 C254.45799255371094,465.9639892578125 377.8269958496094,342.5790100097656 377.8269958496094,190.90899658203125 C377.8269958496094,116.76399993896484 348.1990051269531,49.5 300.3219909667969,-0.01600000075995922 C348.1990051269531,-49.53200149536133 377.8269958496094,-116.7969970703125 377.8269958496094,-190.94200134277344 C377.8269958496094,-342.5790100097656 254.45799255371094,-465.9639892578125 102.80500030517578,-465.9639892578125z M-102.78800201416016,-297.77099609375 C-102.78800201416016,-297.77099609375 102.80500030517578,-297.77099609375 102.80500030517578,-297.77099609375 C161.7050018310547,-297.77099609375 209.63400268554688,-249.8419952392578 209.63400268554688,-190.94200134277344 C209.63400268554688,-132.04100036621094 161.7050018310547,-84.11299896240234 102.80500030517578,-84.11299896240234 C102.80500030517578,-84.11299896240234 -102.78800201416016,-84.11299896240234 -102.78800201416016,-84.11299896240234 C-161.7050018310547,-84.11299896240234 -209.63400268554688,-132.04100036621094 -209.63400268554688,-190.94200134277344 C-209.63400268554688,-249.8419952392578 -161.7050018310547,-297.77099609375 -102.78800201416016,-297.77099609375z M102.80500030517578,297.77099609375 C102.80500030517578,297.77099609375 -102.78800201416016,297.77099609375 -102.78800201416016,297.77099609375 C-161.7050018310547,297.77099609375 -209.63400268554688,249.8419952392578 -209.63400268554688,190.90899658203125 C-209.63400268554688,132.00799560546875 -161.7050018310547,84.08100128173828 -102.78800201416016,84.08100128173828 C-102.78800201416016,84.08100128173828 102.80500030517578,84.08100128173828 102.80500030517578,84.08100128173828 C161.7050018310547,84.08100128173828 209.63400268554688,132.00799560546875 209.63400268554688,190.90899658203125 C209.63400268554688,249.8419952392578 161.7050018310547,297.77099609375 102.80500030517578,297.77099609375z"></path></g></g><g transform="matrix(1,0,0,1,149.99996948242188,73.5)" opacity="1" style="display: none;"><g opacity="1" transform="matrix(1,0,0,1,389.9840087890625,466.2149963378906)"><path fill="rgb(0,102,245)" fill-opacity="1" d=" M199.15199279785156,-465.9639892578125 C199.15199279785156,-465.9639892578125 -389.7340087890625,-465.9639892578125 -389.7340087890625,-465.9639892578125 C-389.7340087890625,-465.9639892578125 -389.7340087890625,-295.7309875488281 -389.7340087890625,-295.7309875488281 C-389.7340087890625,-295.7309875488281 199.15199279785156,-295.7309875488281 199.15199279785156,-295.7309875488281 C210.37399291992188,-295.7309875488281 219.50100708007812,-286.5870056152344 219.50100708007812,-275.3819885253906 C219.50100708007812,-271.2929992675781 218.4029998779297,-267.60198974609375 216.24200439453125,-264.30999755859375 C216.24200439453125,-264.30999755859375 -290.4360046386719,358.5050048828125 -290.4360046386719,358.5050048828125 C-290.4360046386719,358.5050048828125 -158.3719940185547,465.9639892578125 -158.3719940185547,465.9639892578125 C-158.3719940185547,465.9639892578125 349.93499755859375,-158.87899780273438 349.93499755859375,-158.87899780273438 C349.93499755859375,-158.87899780273438 352.22900390625,-161.83799743652344 352.22900390625,-161.83799743652344 C376.7669982910156,-194.88699340820312 389.7340087890625,-234.1199951171875 389.7340087890625,-275.3819885253906 C389.7340087890625,-380.48199462890625 304.2349853515625,-465.9639892578125 199.15199279785156,-465.9639892578125z"></path></g></g><g transform="matrix(1,0,0,1,140.5,56.000030517578125)" opacity="1" style="display: none;"><g opacity="1" transform="matrix(1,0,0,1,399.093994140625,483.57000732421875)"><path fill="rgb(0,102,245)" fill-opacity="1" d=" M120.46800231933594,-73.43000030517578 C120.46800231933594,-73.43000030517578 -34.4630012512207,-73.43000030517578 -34.4630012512207,-73.43000030517578 C-34.4630012512207,-73.43000030517578 210.20700073242188,-376.3919982910156 210.20700073242188,-376.3919982910156 C210.20700073242188,-376.3919982910156 77.7770004272461,-483.32000732421875 77.7770004272461,-483.32000732421875 C77.7770004272461,-483.32000732421875 -334.6679992675781,27.393999099731445 -334.6679992675781,27.393999099731445 C-335.1000061035156,27.915000915527344 -335.510986328125,28.444000244140625 -335.94000244140625,28.9689998626709 C-335.94000244140625,28.9689998626709 -341.989013671875,36.45800018310547 -341.989013671875,36.45800018310547 C-341.989013671875,36.45800018310547 -341.7120056152344,36.68000030517578 -341.7120056152344,36.68000030517578 C-377.3919982910156,83.47799682617188 -398.843994140625,141.67999267578125 -398.843994140625,204.92999267578125 C-398.843994140625,358.4389953613281 -273.9620056152344,483.32000732421875 -120.46900177001953,483.32000732421875 C-120.46900177001953,483.32000732421875 120.46800231933594,483.32000732421875 120.46800231933594,483.32000732421875 C273.96099853515625,483.32000732421875 398.843994140625,358.4389953613281 398.843994140625,204.92999267578125 C398.843994140625,51.452999114990234 273.96099853515625,-73.43000030517578 120.46800231933594,-73.43000030517578z M120.46800231933594,313.0880126953125 C120.46800231933594,313.0880126953125 -120.46900177001953,313.0880126953125 -120.46900177001953,313.0880126953125 C-180.10000610351562,313.0880126953125 -228.61099243164062,264.5769958496094 -228.61099243164062,204.92999267578125 C-228.61099243164062,145.31500244140625 -180.10000610351562,96.80500030517578 -120.46900177001953,96.80500030517578 C-120.46900177001953,96.80500030517578 120.46800231933594,96.80500030517578 120.46800231933594,96.80500030517578 C180.10000610351562,96.80500030517578 228.61000061035156,145.31500244140625 228.61000061035156,204.92999267578125 C228.61000061035156,264.5769958496094 180.10000610351562,313.0880126953125 120.46800231933594,313.0880126953125z"></path></g></g><g transform="matrix(1,0,0,1,177.5,79.5)" opacity="1" style="display: none;"><g opacity="1" transform="matrix(1,0,0,1,362.0459899902344,460.4289855957031)"><path fill="rgb(0,102,245)" fill-opacity="1" d=" M83.43800354003906,-96.5719985961914 C83.43800354003906,-96.5719985961914 -166.67599487304688,-96.5719985961914 -166.67599487304688,-96.5719985961914 C-166.67599487304688,-96.5719985961914 -166.67599487304688,-289.9469909667969 -166.67599487304688,-289.9469909667969 C-166.67599487304688,-289.9469909667969 306.03900146484375,-289.9469909667969 306.03900146484375,-289.9469909667969 C306.03900146484375,-289.9469909667969 306.03900146484375,-460.1789855957031 306.03900146484375,-460.1789855957031 C306.03900146484375,-460.1789855957031 -336.9100036621094,-460.1789855957031 -336.9100036621094,-460.1789855957031 C-336.9100036621094,-460.1789855957031 -336.9100036621094,73.66100311279297 -336.9100036621094,73.66100311279297 C-336.9100036621094,73.66100311279297 83.43800354003906,73.66100311279297 83.43800354003906,73.66100311279297 C143.05299377441406,73.66100311279297 191.56300354003906,122.1709976196289 191.56300354003906,181.78599548339844 C191.56300354003906,241.43499755859375 143.05299377441406,289.9460144042969 83.43800354003906,289.9460144042969 C83.43800354003906,289.9460144042969 -361.7959899902344,289.9460144042969 -361.7959899902344,289.9460144042969 C-361.7959899902344,289.9460144042969 -361.7959899902344,460.1789855957031 -361.7959899902344,460.1789855957031 C-361.7959899902344,460.1789855957031 83.43800354003906,460.1789855957031 83.43800354003906,460.1789855957031 C236.93099975585938,460.1789855957031 361.7959899902344,335.2959899902344 361.7959899902344,181.78599548339844 C361.7959899902344,28.31100082397461 236.93099975585938,-96.5719985961914 83.43800354003906,-96.5719985961914z"></path></g></g><g transform="matrix(1,0,0,1,127.50003051757812,63)" opacity="1" style="display: none;"><g opacity="1" transform="matrix(1,0,0,1,412.0769958496094,476.77099609375)"><path fill="rgb(0,102,245)" fill-opacity="1" d=" M241.59500122070312,57.354000091552734 C241.59500122070312,57.354000091552734 -221.22799682617188,57.354000091552734 -221.22799682617188,57.354000091552734 C-232.44900512695312,57.354000091552734 -241.59300231933594,48.209999084472656 -241.59300231933594,37.005001068115234 C-241.59300231933594,33.01599884033203 -240.54600524902344,29.392000198364258 -238.4669952392578,26.16699981689453 C-238.4669952392578,26.16699981689453 85.95700073242188,-364.572998046875 85.95700073242188,-364.572998046875 C85.95700073242188,-364.572998046875 -45.00899887084961,-473.2959899902344 -45.00899887084961,-473.2959899902344 C-45.00899887084961,-473.2959899902344 -371.47900390625,-80.12899780273438 -371.47900390625,-80.12899780273438 C-371.47900390625,-80.12899780273438 -374.3219909667969,-76.53900146484375 -374.3219909667969,-76.53900146484375 C-398.8599853515625,-43.48899841308594 -411.8269958496094,-4.25600004196167 -411.8269958496094,37.005001068115234 C-411.8269958496094,142.10499572753906 -326.3269958496094,227.58700561523438 -221.22799682617188,227.58700561523438 C-221.22799682617188,227.58700561523438 241.59500122070312,227.58700561523438 241.59500122070312,227.58700561523438 C241.59500122070312,227.58700561523438 241.59500122070312,476.52099609375 241.59500122070312,476.52099609375 C241.59500122070312,476.52099609375 411.8269958496094,476.52099609375 411.8269958496094,476.52099609375 C411.8269958496094,476.52099609375 411.8269958496094,-476.52099609375 411.8269958496094,-476.52099609375 C411.8269958496094,-476.52099609375 241.59500122070312,-476.52099609375 241.59500122070312,-476.52099609375 C241.59500122070312,-476.52099609375 241.59500122070312,57.354000091552734 241.59500122070312,57.354000091552734z"></path></g></g><g transform="matrix(1,0,0,1,186.50003051757812,68)" opacity="1" style="display: none;"><g opacity="1" transform="matrix(1,0,0,1,353.30999755859375,471.86700439453125)"><path fill="rgb(0,102,245)" fill-opacity="1" d=" M74.7020034790039,-471.61700439453125 C74.7020034790039,-471.61700439453125 -353.05999755859375,-471.61700439453125 -353.05999755859375,-471.61700439453125 C-353.05999755859375,-471.61700439453125 -353.05999755859375,-301.38299560546875 -353.05999755859375,-301.38299560546875 C-353.05999755859375,-301.38299560546875 74.7020034790039,-301.38299560546875 74.7020034790039,-301.38299560546875 C134.31700134277344,-301.38299560546875 182.82699584960938,-252.8730010986328 182.82699584960938,-193.25799560546875 C182.82699584960938,-133.64300537109375 134.31700134277344,-85.13300323486328 74.7020034790039,-85.13300323486328 C74.7020034790039,-85.13300323486328 -353.05999755859375,-85.13300323486328 -353.05999755859375,-85.13300323486328 C-353.05999755859375,-85.13300323486328 -353.05999755859375,85.0999984741211 -353.05999755859375,85.0999984741211 C-353.05999755859375,85.0999984741211 74.7020034790039,85.0999984741211 74.7020034790039,85.0999984741211 C134.31700134277344,85.0999984741211 182.82699584960938,133.61000061035156 182.82699584960938,193.22500610351562 C182.82699584960938,252.87399291992188 134.31700134277344,301.38299560546875 74.7020034790039,301.38299560546875 C74.7020034790039,301.38299560546875 -353.05999755859375,301.38299560546875 -353.05999755859375,301.38299560546875 C-353.05999755859375,301.38299560546875 -353.05999755859375,471.61700439453125 -353.05999755859375,471.61700439453125 C-353.05999755859375,471.61700439453125 74.7020034790039,471.61700439453125 74.7020034790039,471.61700439453125 C228.19500732421875,471.61700439453125 353.05999755859375,346.7349853515625 353.05999755859375,193.22500610351562 C353.05999755859375,118.18000030517578 323.0719909667969,50.0989990234375 274.614013671875,-0.017000000923871994 C323.0719909667969,-50.132999420166016 353.05999755859375,-118.21399688720703 353.05999755859375,-193.25799560546875 C353.05999755859375,-346.7349853515625 228.19500732421875,-471.61700439453125 74.7020034790039,-471.61700439453125z"></path></g></g><g transform="matrix(1,0,0,1,153.99996948242188,67.99996948242188)" opacity="1" style="display: none;"><g opacity="1" transform="matrix(1,0,0,1,385.5329895019531,471.86700439453125)"><path fill="rgb(0,102,245)" fill-opacity="1" d=" M308.5450134277344,-12.883999824523926 C377.0539855957031,-70.1050033569336 377.0530090332031,-153.29400634765625 377.0530090332031,-193.25900268554688 C377.0530090332031,-346.7349853515625 252.17100524902344,-471.6159973144531 98.6780014038086,-471.6159973144531 C98.6780014038086,-471.6159973144531 -106.90699768066406,-471.6159973144531 -106.90699768066406,-471.6159973144531 C-260.3999938964844,-471.6159973144531 -385.2829895019531,-346.7349853515625 -385.2829895019531,-193.25900268554688 C-385.2829895019531,-193.25900268554688 -215.04800415039062,-193.25900268554688 -215.04800415039062,-193.25900268554688 C-215.04800415039062,-252.87399291992188 -166.53799438476562,-301.3840026855469 -106.90699768066406,-301.3840026855469 C-106.90699768066406,-301.3840026855469 98.6780014038086,-301.3840026855469 98.6780014038086,-301.3840026855469 C158.30999755859375,-301.3840026855469 206.81900024414062,-252.87399291992188 206.81900024414062,-193.25900268554688 C206.81900024414062,-164.36500549316406 204.3260040283203,-147.64100646972656 201.2830047607422,-145.04800415039062 C201.2830047607422,-145.04800415039062 -372.0400085449219,334.7829895019531 -372.0400085449219,334.7829895019531 C-372.0400085449219,334.7829895019531 -372.0400085449219,471.6159973144531 -372.0400085449219,471.6159973144531 C-372.0400085449219,471.6159973144531 385.2829895019531,471.6159973144531 385.2829895019531,471.6159973144531 C385.2829895019531,471.6159973144531 385.2829895019531,301.38299560546875 385.2829895019531,301.38299560546875 C385.2829895019531,301.38299560546875 -64.30500030517578,301.38299560546875 -64.30500030517578,301.38299560546875 C-64.30500030517578,301.38299560546875 308.5450134277344,-12.883999824523926 308.5450134277344,-12.883999824523926z"></path></g></g><g transform="matrix(1,0,0,1,239,68)" opacity="1" style="display: none;"><g opacity="1" transform="matrix(1,0,0,1,300.6700134277344,471.86700439453125)"><path fill="rgb(0,102,245)" fill-opacity="1" d=" M153.9239959716797,-471.61700439453125 C153.9239959716797,-471.61700439453125 41.51599884033203,-471.61700439453125 41.51599884033203,-471.61700439453125 C41.51599884033203,-471.61700439453125 -300.4200134277344,-224.81300354003906 -300.4200134277344,-224.81300354003906 C-300.4200134277344,-224.81300354003906 -201.37100219726562,-86.36599731445312 -201.37100219726562,-86.36599731445312 C-201.37100219726562,-86.36599731445312 -16.309999465942383,-220.98800659179688 -16.309999465942383,-220.98800659179688 C-16.309999465942383,-220.98800659179688 -16.309999465942383,301.38299560546875 -16.309999465942383,301.38299560546875 C-16.309999465942383,301.38299560546875 -232.80599975585938,301.38299560546875 -232.80599975585938,301.38299560546875 C-232.80599975585938,301.38299560546875 -232.80599975585938,471.61700439453125 -232.80599975585938,471.61700439453125 C-232.80599975585938,471.61700439453125 300.4200134277344,471.61700439453125 300.4200134277344,471.61700439453125 C300.4200134277344,471.61700439453125 300.4200134277344,301.38299560546875 300.4200134277344,301.38299560546875 C300.4200134277344,301.38299560546875 153.9239959716797,301.38299560546875 153.9239959716797,301.38299560546875 C153.9239959716797,301.38299560546875 153.9239959716797,-471.61700439453125 153.9239959716797,-471.61700439453125z"></path></g></g><g transform="matrix(1,0,0,1,157,67.99996948242188)" opacity="1" style="display: none;"><g opacity="1" transform="matrix(1,0,0,1,382.6600036621094,471.86700439453125)"><path fill="rgb(0,102,245)" fill-opacity="1" d=" M104.03500366210938,-471.61700439453125 C104.03500366210938,-471.61700439453125 -104.0510025024414,-471.61700439453125 -104.0510025024414,-471.61700439453125 C-257.54400634765625,-471.61700439453125 -382.4100036621094,-346.7349853515625 -382.4100036621094,-193.25799560546875 C-382.4100036621094,-193.25799560546875 -382.4100036621094,193.22500610351562 -382.4100036621094,193.22500610351562 C-382.4100036621094,346.7349853515625 -257.54400634765625,471.61700439453125 -104.0510025024414,471.61700439453125 C-104.0510025024414,471.61700439453125 104.03500366210938,471.61700439453125 104.03500366210938,471.61700439453125 C257.52899169921875,471.61700439453125 382.4100036621094,346.7349853515625 382.4100036621094,193.22500610351562 C382.4100036621094,193.22500610351562 382.4100036621094,-193.25799560546875 382.4100036621094,-193.25799560546875 C382.4100036621094,-346.7349853515625 257.52899169921875,-471.61700439453125 104.03500366210938,-471.61700439453125z M212.17799377441406,193.22500610351562 C212.17799377441406,252.8730010986328 163.66799926757812,301.38299560546875 104.03600311279297,301.38299560546875 C104.03600311279297,301.38299560546875 -104.0510025024414,301.38299560546875 -104.0510025024414,301.38299560546875 C-163.66600036621094,301.38299560546875 -212.17599487304688,252.8730010986328 -212.17599487304688,193.22500610351562 C-212.17599487304688,193.22500610351562 -212.17599487304688,-193.25799560546875 -212.17599487304688,-193.25799560546875 C-212.17599487304688,-252.87399291992188 -163.66600036621094,-301.38299560546875 -104.0510025024414,-301.38299560546875 C-104.0510025024414,-301.38299560546875 104.03600311279297,-301.38299560546875 104.03600311279297,-301.38299560546875 C163.66799926757812,-301.38299560546875 212.17799377441406,-252.87399291992188 212.17799377441406,-193.25799560546875 C212.17799377441406,-193.25799560546875 212.17799377441406,193.22500610351562 212.17799377441406,193.22500610351562z"></path></g></g></g><g mask="url(#__lottie_element_10)" style="display: block;"><g clip-path="url(#__lottie_element_14)" transform="matrix(1,0,0,1,0,0)" opacity="1"><g transform="matrix(0.9668483734130859,0.2553512752056122,-0.2553512752056122,0.9668483734130859,628.2811279296875,69.15609741210938)" opacity="1" style="display: block;"><g opacity="1" transform="matrix(1,0,0,1,358.83099365234375,345.7130126953125)"><path stroke-linecap="butt" stroke-linejoin="miter" fill-opacity="0" stroke-miterlimit="10" stroke="rgb(0,102,245)" stroke-opacity="1" stroke-width="25" d=" M122.84700012207031,-244.09800720214844 C161.06700134277344,-223.7729949951172 193.20899963378906,-194.41099548339844 216.90199279785156,-159.26800537109375 C216.90199279785156,-159.26800537109375 210.91099548339844,-167.78599548339844 210.91099548339844,-167.78599548339844 C296.33099365234375,-51.30400085449219 271.1510009765625,112.37200164794922 154.66799926757812,197.79200744628906 C38.18600082397461,283.2130126953125 -125.48899841308594,258.0320129394531 -210.91000366210938,141.5500030517578 C-296.33099365234375,25.066999435424805 -271.1499938964844,-138.60800170898438 -154.66700744628906,-224.0279998779297 C-93.56400299072266,-268.8370056152344 -19.475000381469727,-283.2120056152344 49.49300003051758,-269.93798828125"></path></g></g><g transform="matrix(0.9668483734130859,0.2553512752056122,-0.2553512752056122,0.9668483734130859,897.2227172851562,45.17463302612305)" opacity="1" style="display: block;"><g opacity="1" transform="matrix(1,0,0,1,108.45700073242188,162.1540069580078)"><path stroke-linecap="butt" stroke-linejoin="miter" fill-opacity="0" stroke-miterlimit="10" stroke="rgb(0,102,245)" stroke-opacity="1" stroke-width="25" d=" M-57.863765716552734,76.40117645263672 C-57.863765716552734,76.40117645263672 45.957000732421875,5.515999794006348 45.957000732421875,5.515999794006348 C45.957000732421875,5.515999794006348 -58.72319793701172,-78.3474349975586 -58.72319793701172,-78.3474349975586"></path></g></g></g></g></g></g></svg>